<?xml version="1.0" encoding="UTF-8" standalone="no"?>
<!DOCTYPE svg PUBLIC "-//W3C//DTD SVG 1.0//EN"
"http://www.w3.org/TR/2001/REC-SVG-20010904/DTD/svg10.dtd">
<!-- Created with Inkscape (http://www.inkscape.org/) -->
<svg
   id="svg1050"
   sodipodi:version="0.32"
   inkscape:version="0.38.1"
   xmlns="http://www.w3.org/2000/svg"
   xmlns:sodipodi="http://sodipodi.sourceforge.net/DTD/sodipodi-0.dtd"
   xmlns:inkscape="http://www.inkscape.org/namespaces/inkscape"
   xmlns:xlink="http://www.w3.org/1999/xlink"
   width="210mm"
   height="297mm"
   sodipodi:docbase="/mnt/Datos/home"
   sodipodi:docname="AndaTuz2.svg">
  <defs
     id="defs1052" />
  <sodipodi:namedview
     id="base"
     pagecolor="#ffffff"
     bordercolor="#666666"
     borderopacity="1.0"
     inkscape:pageopacity="0.0"
     inkscape:pageshadow="2"
     inkscape:zoom="1.2279853"
     inkscape:cx="203.38470"
     inkscape:cy="344.26597"
     inkscape:window-width="1278"
     inkscape:window-height="944"
     inkscape:window-x="0"
     inkscape:window-y="27" />
  <text
     xml:space="preserve"
     style="fill:#000000;fill-opacity:1.0000000;stroke:none;font-family:Bitstream Vera Sans;font-style:normal;font-weight:normal;font-size:18.000000;font-stretch:normal;font-variant:normal;text-anchor:start;writing-mode:lr;fill-rule:nonzero;stroke-opacity:1;stroke-width:1pt;stroke-linejoin:miter;stroke-linecap:butt;"
     x="518.46926"
     y="1013.5961"
     id="text1186"><tspan
       id="tspan1187">www.guadalinex.org</tspan></text>
  <g
     style="fill:#c1efd7;"
     id="g848"
     transform="matrix(6.473292,0.000000,0.000000,6.473292,-606.6424,-3823.800)">
    <path
       d="M209.503 340.861z"
       id="path849" />
  </g>
  <g
     style="fill:#000000;"
     id="g854"
     transform="matrix(6.473292,0.000000,0.000000,6.473292,-606.6424,-3823.800)">
    <path
       d="M206.724 386.459z"
       id="path855" />
  </g>
  <g
     style="fill:#ffffff;"
     id="g860"
     transform="matrix(6.473292,0.000000,0.000000,6.473292,-606.6424,-3823.800)">
    <path
       d="M208.534 386.098z"
       id="path861" />
  </g>
  <g
     style="fill:#000000;"
     id="g870"
     transform="matrix(6.473292,0.000000,0.000000,6.473292,-606.6424,-3823.800)">
    <path
       d="M180.731 395.17z"
       id="path871" />
  </g>
  <g
     style="fill:#f9ec70;"
     id="g880"
     transform="matrix(6.473292,0.000000,0.000000,6.473292,-606.6424,-3823.800)">
    <path
       d="M172.788 396.832z"
       id="path881" />
  </g>
  <g
     style="fill:#f9ec70;"
     id="g884"
     transform="matrix(6.473292,0.000000,0.000000,6.473292,-606.6424,-3823.800)">
    <path
       d="M146.995 548.447z"
       id="path885" />
  </g>
  <g
     style="fill:#f9ec70;"
     id="g888"
     transform="matrix(6.473292,0.000000,0.000000,6.473292,-606.6424,-3823.800)">
    <path
       d="M131.446 536.299z"
       id="path889" />
  </g>
  <g
     style="fill:#f9ec70;"
     id="g892"
     transform="matrix(6.473292,0.000000,0.000000,6.473292,-606.6424,-3823.800)">
    <path
       d="M172.869 554.33z"
       id="path893" />
  </g>
  <g
     style="fill:#f9ec70;"
     id="g896"
     transform="matrix(6.473292,0.000000,0.000000,6.473292,-606.6424,-3823.800)">
    <path
       d="M260.648 544.17z"
       id="path897" />
  </g>
  <g
     style="fill:#f9ec70;"
     id="g900"
     transform="matrix(6.473292,0.000000,0.000000,6.473292,-606.6424,-3823.800)">
    <path
       d="M231.413 548.867z"
       id="path901" />
  </g>
  <g
     style="fill:#f9ec70;"
     id="g904"
     transform="matrix(6.473292,0.000000,0.000000,6.473292,-606.6424,-3823.800)">
    <path
       d="M277.72 536.444z"
       id="path905" />
  </g>
  <g
     style="fill:#c1efd7;"
     id="g914"
     transform="matrix(6.473292,0.000000,0.000000,6.473292,-606.6424,-3823.800)">
    <path
       d="M257.729 415.779z"
       id="path915" />
  </g>
  <g
     style="fill:#000000;"
     id="g928"
     transform="matrix(6.473292,0.000000,0.000000,6.473292,-606.6424,-3823.800)">
    <path
       d="M167.06 386.33z"
       id="path929" />
  </g>
  <g
     style="fill:#ffffff;"
     id="g932"
     transform="matrix(6.473292,0.000000,0.000000,6.473292,-606.6424,-3823.800)">
    <path
       d="M168.87 385.968z"
       id="path933" />
  </g>
  <g
     style="fill:#88d5b0;stroke:#000000;stroke-width:4;"
     id="g934"
     transform="matrix(3.088532,0.000000,0.000000,3.088532,-229.2183,-1869.078)">
    <path
       d="M138.724 739.904C138.724 739.904 137.226 736.574 132.556 739.738C127.886 742.901 112.885 763.08 112.052 767.409C111.22 771.738 104.56 796.079 116.889 793.24C129.218 790.402 136.893 776.234 138.391 771.904C139.89 767.576 138.724 739.904 138.724 739.904z"
       id="path935" />
  </g>
  <g
     style="fill:#000000;stroke:#000000;stroke-width:7.9999;"
     id="g936"
     transform="matrix(3.088532,0.000000,0.000000,3.088532,-229.2183,-1869.078)">
    <path
       d="M221.706 837.173C221.706 837.173 272.591 862.344 279.719 868.929C286.846 875.514 284.913 875.417 278.118 873.64C271.323 871.863 260.463 864.612 256.603 867.294C252.744 869.976 265.389 879.286 270.554 884.336C275.718 889.385 273.36 891.183 268.364 889.976C263.369 888.768 240.749 875.871 240.749 875.871C240.749 875.871 232.453 870.878 234.362 876.51C236.271 882.143 241.29 894.851 237.633 895.893C233.976 896.935 229.983 891.89 227.8 887.469C225.616 883.048 213.511 862.745 209.832 857.982C206.154 853.219 200.832 850.079 201.979 842.683C203.127 835.287 221.706 837.173 221.706 837.173z"
       id="path937" />
  </g>
  <g
     style="stroke:#000000;stroke-width:12;"
     id="g938"
     transform="matrix(3.088532,0.000000,0.000000,3.088532,-229.2183,-1869.078)">
    <path
       d="M201.154 662.313C199.48 662.039 185.154 656.313 164.154 683.313C143.154 710.313 146.742 714.048 141.301 722.901C135.86 731.754 116.021 801.622 131.595 829.034C147.168 856.445 185.139 859.754 198.58 859.754C212.021 859.754 283.595 848.019 278.58 806.739C273.566 765.46 270.05 747.004 251.595 712.872C233.139 678.739 210.326 663.816 201.154 662.313z"
       id="path939" />
  </g>
  <g
     style="fill:#000000;stroke:#000000;stroke-width:7.9999;"
     id="g940"
     transform="matrix(3.088532,0.000000,0.000000,3.088532,-229.2183,-1869.078)">
    <path
       d="M169.22 843.8C169.22 843.8 122.187 866.619 116.119 872.901C110.052 879.182 111.985 879.182 118.536 877.732C125.086 876.283 134.804 869.518 139.153 872.417C143.502 875.317 132.334 884.069 127.985 888.901C123.636 893.732 126.321 895.665 131.153 894.699C135.985 893.732 156.603 881.867 156.603 881.867C156.603 881.867 164.12 877.249 163.153 882.833C162.187 888.417 159.288 900.981 163.153 902.216C167.019 903.451 170.187 898.564 171.636 894.216C173.086 889.867 181.838 870.001 184.737 865.384C187.636 860.766 192.468 857.867 190.052 850.35C187.636 842.833 169.22 843.8 169.22 843.8z"
       id="path941" />
  </g>
  <g
     style="fill:#fdce27;"
     id="g942"
     transform="matrix(3.088532,0.000000,0.000000,3.088532,-229.2183,-1869.078)">
    <path
       d="M172.962 838.418C172.962 838.418 125.928 861.237 119.861 867.519C113.794 873.8 115.726 873.8 122.277 872.351C128.827 870.901 138.546 864.137 142.894 867.036C147.243 869.935 136.075 878.687 131.726 883.519C127.378 888.351 130.062 890.284 134.894 889.317C139.726 888.351 160.344 876.485 160.344 876.485C160.344 876.485 167.861 871.868 166.894 877.452C165.928 883.036 163.029 895.599 166.894 896.834C170.76 898.069 173.928 893.183 175.378 888.834C176.827 884.485 185.579 864.62 188.478 860.002C191.378 855.384 196.21 852.485 193.794 844.968C191.378 837.452 172.962 838.418 172.962 838.418z"
       id="path943" />
  </g>
  <g
     style="fill:#fdce27;"
     id="g944"
     transform="matrix(3.088532,0.000000,0.000000,3.088532,-229.2183,-1869.078)">
    <path
       d="M217.674 831.868C217.674 831.868 268.559 857.038 275.687 863.623C282.814 870.208 280.881 870.111 274.086 868.334C267.291 866.558 256.431 859.307 252.572 861.989C248.712 864.67 261.358 873.981 266.522 879.03C271.686 884.08 269.328 885.878 264.332 884.67C259.337 883.462 236.717 870.566 236.717 870.566C236.717 870.566 228.421 865.573 230.33 871.205C232.239 876.837 237.258 889.545 233.601 890.587C229.944 891.629 225.951 886.585 223.768 882.163C221.584 877.742 209.479 857.439 205.8 852.677C202.122 847.914 196.8 844.773 197.948 837.377C199.095 829.981 217.674 831.868 217.674 831.868z"
       id="path945" />
  </g>
  <g
     style="fill:#feb02a;"
     id="g946"
     transform="matrix(3.088532,0.000000,0.000000,3.088532,-229.2183,-1869.078)">
    <path
       d="M146.072 851.971C145.038 853.095 167.577 861.544 176.364 862.106C185.15 862.668 185.263 866.061 185.263 866.061L190.341 857.387L153.959 847.926C153.959 847.926 147.106 850.847 146.072 851.971z"
       id="path947" />
  </g>
  <g
     style="fill:#feb02a;"
     id="g948"
     transform="matrix(3.088532,0.000000,0.000000,3.088532,-229.2183,-1869.078)">
    <path
       d="M213.856 864.064C213.856 864.064 216.14 860.275 220.051 859.974C223.961 859.674 247.661 854.861 252.953 850.47L246.457 846.381C246.457 846.381 234.668 843.674 230.758 844.576C226.848 845.478 210.067 848.966 209.164 851.674C208.262 854.381 208.563 856.666 208.563 856.666L213.856 864.064z"
       id="path949" />
  </g>
  <g
     style="fill:#88d5b0;stroke:#000000;stroke-width:1.5;"
     id="g950"
     transform="matrix(3.088532,0.000000,0.000000,3.088532,-229.2183,-1869.078)">
    <path
       d="M201.154 659.313C199.48 659.039 185.154 653.313 164.154 680.313C143.154 707.313 146.742 711.048 141.301 719.901C135.86 728.754 116.021 798.622 131.595 826.034C147.168 853.445 185.139 856.754 198.58 856.754C212.021 856.754 283.595 845.019 278.58 803.739C273.566 762.46 270.05 744.004 251.595 709.872C233.139 675.739 210.326 660.816 201.154 659.313z"
       id="path951" />
  </g>
  <g
     style="fill:#fefef6;"
     id="g952"
     transform="matrix(3.088532,0.000000,0.000000,3.088532,-229.2183,-1869.078)">
    <path
       d="M150.482 728.977C148.387 714.074 155.113 700.809 165.504 699.348C169.89 698.732 174.228 700.317 177.935 703.476C184.15 692.746 194.813 686.409 205.56 688.304C220.245 690.894 229.526 707.873 226.289 726.23C225.865 728.636 225.246 730.946 224.459 733.138C228.592 736.812 232.006 741.81 234.055 748.572C244.055 781.572 275.055 824.572 232.055 845.072C189.055 865.572 139.055 838.072 134.555 827.572C130.055 817.072 131.055 783.072 136.055 764.072C141.055 745.072 150.482 728.977 150.482 728.977z"
       id="path953" />
  </g>
  <g
     style="fill:#eff1e4;"
     id="g954"
     transform="matrix(3.088532,0.000000,0.000000,3.088532,-229.2183,-1869.078)">
    <path
       d="M232.413 845.438C189.517 865.888 139.655 838.571 134.946 828.015C148.876 837.933 166.088 843.794 184.716 843.794C213.66 843.794 239.184 829.645 254.29 808.112C255.919 823.062 251.318 836.425 232.413 845.438z"
       id="path955" />
  </g>
  <g
     style="fill:#c1efd7;"
     id="g956"
     transform="matrix(3.088532,0.000000,0.000000,3.088532,-229.2183,-1869.078)">
    <path
       d="M201.532 663.817C203.918 662.616 208.056 664.307 210.774 667.592C213.493 670.877 213.762 674.513 211.375 675.713C208.988 676.913 204.85 675.223 202.132 671.938C199.414 668.653 199.145 665.017 201.532 663.817z"
       id="path957" />
  </g>
  <g
     style="fill:#c1efd7;"
     id="g958"
     transform="matrix(6.473292,0.000000,0.000000,6.473292,-606.6424,-3823.800)">
    <path
       d="M206.453 669.765z"
       id="path959" />
  </g>
  <g
     style="fill:#eff1e4;"
     id="g960"
     transform="matrix(3.088532,0.000000,0.000000,3.088532,-229.2183,-1869.078)">
    <path
       d="M235.316 753.368C236.646 751.539 252.48 799.539 252.48 799.539C252.48 799.539 243.981 800.869 236.48 768.536C236.48 768.536 233.987 755.196 235.316 753.368z"
       id="path961" />
  </g>
  <g
     style="fill:#000000;"
     id="g962"
     transform="matrix(3.088532,0.000000,0.000000,3.088532,-229.2183,-1869.078)">
    <path
       d="M201.088 715.363C201.088 713.056 202.246 711.186 203.675 711.186C205.103 711.186 206.261 713.056 206.261 715.363C206.261 717.669 205.103 719.539 203.675 719.539C202.246 719.539 201.088 717.669 201.088 715.363z"
       id="path963" />
  </g>
  <g
     style="fill:#000000;"
     id="g964"
     transform="matrix(6.473292,0.000000,0.000000,6.473292,-606.6424,-3823.800)">
    <path
       d="M203.675 715.363z"
       id="path965" />
  </g>
  <g
     style="fill:#ffffff;"
     id="g972"
     transform="matrix(3.088532,0.000000,0.000000,3.088532,-229.2183,-1869.078)">
    <path
       d="M204.141 715.001C204.141 714.26 204.743 713.659 205.484 713.659C206.226 713.659 206.827 714.26 206.827 715.001C206.827 715.743 206.226 716.344 205.484 716.344C204.743 716.344 204.141 715.743 204.141 715.001z"
       id="path973" />
  </g>
  <g
     style="fill:#ffffff;"
     id="g974"
     transform="matrix(6.473292,0.000000,0.000000,6.473292,-606.6424,-3823.800)">
    <path
       d="M205.484 715.001z"
       id="path975" />
  </g>
  <g
     style="fill:#eff1e4;"
     id="g976"
     transform="matrix(3.088532,0.000000,0.000000,3.088532,-229.2183,-1869.078)">
    <path
       d="M177.139 760.893C174.281 763.906 171.274 766.532 168.585 767.778C160.041 771.739 161.806 762.827 162.288 759.609C162.769 756.391 165.215 751.38 165.215 751.38C166.858 744.697 172.437 731.21 174.882 727.745C177.328 724.279 180.339 720.566 185.834 722.051C190.776 723.387 193.74 734.586 194.286 736.823C195.473 738.388 196.332 740.362 196.732 742.665C198.079 750.422 193.707 758.969 186.966 761.756C183.388 763.235 179.862 762.793 177.139 760.893z"
       id="path977" />
  </g>
  <g
     style="fill:#fae62a;stroke:#000000;stroke-width:4;"
     id="g978"
     transform="matrix(3.088532,0.000000,0.000000,3.088532,-229.2183,-1869.078)">
    <path
       d="M171.208 743.269C168.628 745.031 165.915 746.567 163.488 747.296C155.778 749.613 157.371 744.4 157.806 742.517C158.24 740.634 160.447 737.703 160.447 737.703C161.93 733.793 166.964 725.903 169.171 723.875C171.378 721.848 174.095 719.676 179.054 720.545C183.515 721.326 186.189 727.878 186.682 729.187C187.753 730.102 188.528 731.257 188.889 732.604C190.105 737.143 186.159 742.143 180.076 743.773C176.847 744.638 173.665 744.38 171.208 743.269z"
       id="path979" />
  </g>
  <g
     style="fill:#fdce27;"
     id="g980"
     transform="matrix(3.088532,0.000000,0.000000,3.088532,-229.2183,-1869.078)">
    <path
       d="M170.861 741.913C168.282 743.676 165.569 745.212 163.142 745.941C155.432 748.258 157.025 743.044 157.459 741.161C157.894 739.279 160.101 736.348 160.101 736.348C161.584 732.437 166.618 724.548 168.825 722.52C171.032 720.493 173.749 718.32 178.708 719.189C183.168 719.971 185.843 726.523 186.335 727.831C187.406 728.747 188.182 729.902 188.543 731.249C189.759 735.787 185.813 740.787 179.73 742.417C176.501 743.283 173.319 743.024 170.861 741.913z"
       id="path981" />
  </g>
  <g
     style="fill:#000000;"
     id="g982"
     transform="matrix(3.088532,0.000000,0.000000,3.088532,-229.2183,-1869.078)">
    <path
       d="M176.803 723.435C177.396 722.619 178.27 722.243 178.756 722.596C179.241 722.948 179.154 723.896 178.561 724.712C177.968 725.528 177.094 725.904 176.608 725.551C176.123 725.198 176.21 724.251 176.803 723.435z"
       id="path983" />
  </g>
  <g
     style="fill:#000000;"
     id="g984"
     transform="matrix(6.473292,0.000000,0.000000,6.473292,-606.6424,-3823.800)">
    <path
       d="M177.682 724.073z"
       id="path985" />
  </g>
  <g
     style="fill:#feb02a;"
     id="g986"
     transform="matrix(3.088532,0.000000,0.000000,3.088532,-229.2183,-1869.078)">
    <path
       d="M170.875 742.385C168.295 744.148 165.582 745.684 163.155 746.413C159.215 747.597 157.705 746.812 157.228 745.512C157.228 745.512 160.005 749.474 172.724 737.765C179.795 731.255 181.866 725.579 182.311 721.693C184.617 723.97 186.007 727.396 186.349 728.303C187.42 729.219 188.195 730.374 188.556 731.721C189.772 736.259 185.826 741.26 179.743 742.89C176.514 743.755 173.332 743.497 170.875 742.385z"
       id="path987" />
  </g>
  <g
     style="stroke:#000000;stroke-width:2;"
     id="g988"
     transform="matrix(3.088532,0.000000,0.000000,3.088532,-229.2183,-1869.078)">
    <path
       d="M167.674 745.116C167.674 745.116 181.706 736.953 183.348 730.583"
       id="path989" />
  </g>
  <g
     style="stroke:#000000;"
     id="g990"
     transform="matrix(3.088532,0.000000,0.000000,3.088532,-229.2183,-1869.078)">
    <path
       d="M181.113 728.349C181.113 728.349 184.3 728.739 185.235 732.323"
       id="path991" />
  </g>
  <g
     style="fill:#f9ec70;"
     id="g992"
     transform="matrix(3.088532,0.000000,0.000000,3.088532,-229.2183,-1869.078)">
    <path
       d="M168.219 724.71C170.329 721.581 172.72 719.504 173.56 720.07C174.399 720.636 173.369 723.631 171.258 726.76C169.148 729.889 166.757 731.966 165.918 731.4C165.078 730.834 166.109 727.839 168.219 724.71z"
       id="path993" />
  </g>
  <g
     style="fill:#f9ec70;"
     id="g994"
     transform="matrix(6.473292,0.000000,0.000000,6.473292,-606.6424,-3823.800)">
    <path
       d="M169.739 725.735z"
       id="path995" />
  </g>
  <g
     style="fill:#f9ec70;"
     id="g996"
     transform="matrix(3.088532,0.000000,0.000000,3.088532,-229.2183,-1869.078)">
    <path
       d="M131.968 885.429C131.135 884.196 135.823 879.578 142.439 875.116C149.054 870.654 155.091 868.037 155.923 869.271C156.756 870.505 152.067 875.122 145.452 879.584C138.837 884.046 132.8 886.663 131.968 885.429z"
       id="path997" />
  </g>
  <g
     style="fill:#f9ec70;"
     id="g998"
     transform="matrix(6.473292,0.000000,0.000000,6.473292,-606.6424,-3823.800)">
    <path
       d="M143.946 877.35z"
       id="path999" />
  </g>
  <g
     style="fill:#f9ec70;"
     id="g1000"
     transform="matrix(3.088532,0.000000,0.000000,3.088532,-229.2183,-1869.078)">
    <path
       d="M120.746 867.542C120.403 866.421 123.551 864.466 127.776 863.174C132.001 861.882 135.704 861.743 136.047 862.864C136.389 863.984 133.242 865.94 129.017 867.231C124.791 868.523 121.089 868.662 120.746 867.542z"
       id="path1001" />
  </g>
  <g
     style="fill:#f9ec70;"
     id="g1002"
     transform="matrix(6.473292,0.000000,0.000000,6.473292,-606.6424,-3823.800)">
    <path
       d="M128.396 865.203z"
       id="path1003" />
  </g>
  <g
     style="fill:#f9ec70;"
     id="g1004"
     transform="matrix(3.088532,0.000000,0.000000,3.088532,-229.2183,-1869.078)">
    <path
       d="M171.483 875.408C172.629 875.652 172.814 879.353 171.895 883.675C170.976 887.996 169.303 891.303 168.156 891.059C167.01 890.815 166.826 887.114 167.745 882.792C168.663 878.471 170.337 875.165 171.483 875.408z"
       id="path1005" />
  </g>
  <g
     style="fill:#f9ec70;"
     id="g1006"
     transform="matrix(6.473292,0.000000,0.000000,6.473292,-606.6424,-3823.800)">
    <path
       d="M169.82 883.234z"
       id="path1007" />
  </g>
  <g
     style="fill:#f9ec70;"
     id="g1008"
     transform="matrix(3.088532,0.000000,0.000000,3.088532,-229.2183,-1869.078)">
    <path
       d="M269.887 884.533C268.622 885.889 262.095 881.858 255.308 875.53C248.521 869.201 244.045 862.971 245.31 861.615C246.575 860.258 253.102 864.289 259.889 870.618C266.675 876.946 271.152 883.176 269.887 884.533z"
       id="path1009" />
  </g>
  <g
     style="fill:#f9ec70;"
     id="g1010"
     transform="matrix(6.473292,0.000000,0.000000,6.473292,-606.6424,-3823.800)">
    <path
       d="M257.598 873.074z"
       id="path1011" />
  </g>
  <g
     style="fill:#f9ec70;"
     id="g1012"
     transform="matrix(3.088532,0.000000,0.000000,3.088532,-229.2183,-1869.078)">
    <path
       d="M226.087 878.93C223.558 873.967 222.527 869.424 223.785 868.784C225.043 868.143 228.113 871.647 230.641 876.61C233.17 881.573 234.201 886.116 232.943 886.757C231.685 887.398 228.616 883.894 226.087 878.93z"
       id="path1013" />
  </g>
  <g
     style="fill:#f9ec70;"
     id="g1014"
     transform="matrix(6.473292,0.000000,0.000000,6.473292,-606.6424,-3823.800)">
    <path
       d="M228.364 877.77z"
       id="path1015" />
  </g>
  <g
     style="fill:#f9ec70;"
     id="g1016"
     transform="matrix(3.088532,0.000000,0.000000,3.088532,-229.2183,-1869.078)">
    <path
       d="M267.373 860.426C267.869 859.691 271.538 861.299 275.568 864.018C279.598 866.736 282.464 869.535 281.968 870.27C281.473 871.005 277.804 869.397 273.774 866.678C269.743 863.96 266.878 861.16 267.373 860.426z"
       id="path1017" />
  </g>
  <g
     style="fill:#f9ec70;"
     id="g1018"
     transform="matrix(6.473292,0.000000,0.000000,6.473292,-606.6424,-3823.800)">
    <path
       d="M274.671 865.348z"
       id="path1019" />
  </g>
  <g
     style="stroke:#000000;stroke-width:4.8346;"
     id="g1020"
     transform="matrix(3.088532,0.000000,0.000000,3.088532,-229.2183,-1869.078)">
    <path
       d="M113.051 755.904C113.051 755.904 111.561 749.411 107.89 751.742C104.219 754.073 100.389 760.908 99.057 769.24C97.725 777.573 99.382 792.067 103.719 795.904C108.056 799.742 111.561 799.734 114.558 798.568C117.555 797.403 120.227 797.903 121.559 796.237C122.891 794.572 124.223 783.243 124.389 778.905C124.556 774.568 123.882 769.415 119.553 767.076C115.224 764.737 113.892 763.904 113.725 762.24C113.559 760.575 113.051 755.904 113.051 755.904z"
       id="path1021" />
  </g>
  <g
     style="fill:#88d5b0;"
     id="g1022"
     transform="matrix(3.088532,0.000000,0.000000,3.088532,-229.2183,-1869.078)">
    <path
       d="M114.722 756.279C114.722 756.279 113.232 749.786 109.561 752.117C105.89 754.448 102.06 761.282 100.728 769.615C99.396 777.948 101.053 792.442 105.39 796.279C109.727 800.117 113.232 800.109 116.229 798.943C119.226 797.778 121.898 798.277 123.23 796.612C124.562 794.947 125.894 783.617 126.06 779.28C126.227 774.943 125.553 769.79 121.224 767.451C116.895 765.112 115.563 764.279 115.396 762.614C115.23 760.949 114.722 756.279 114.722 756.279z"
       id="path1023" />
  </g>
  <g
     style="fill:#c1efd7;"
     id="g1024"
     transform="matrix(3.088532,0.000000,0.000000,3.088532,-229.2183,-1869.078)">
    <path
       d="M108.591 757.794C108.591 755.095 109.948 752.906 111.622 752.906C113.296 752.906 114.653 755.095 114.653 757.794C114.653 760.494 113.296 762.683 111.622 762.683C109.948 762.683 108.591 760.494 108.591 757.794z"
       id="path1025" />
  </g>
  <g
     style="fill:#c1efd7;"
     id="g1026"
     transform="matrix(6.473292,0.000000,0.000000,6.473292,-606.6424,-3823.800)">
    <path
       d="M111.622 757.794z"
       id="path1027" />
  </g>
  <g
     style="fill:#2c996c;"
     id="g1028"
     transform="matrix(3.088532,0.000000,0.000000,3.088532,-229.2183,-1869.078)">
    <path
       d="M116.073 763.432C116.497 764.74 117.989 765.633 121.781 767.682C126.11 770.021 126.784 775.174 126.617 779.511C126.451 783.848 125.119 795.178 123.787 796.843C122.455 798.508 119.783 798.009 116.786 799.174C113.789 800.34 110.284 800.348 105.947 796.51C105.668 796.263 105.4 795.972 105.143 795.641C105.295 795.732 105.442 795.799 105.584 795.839C109.129 796.832 113.726 793.37 116.62 791.385C119.514 789.399 120.591 789.399 121.3 782.534C122.009 775.668 119.74 772.69 118.889 771.839C118.038 770.988 116.052 768.519 115.002 766.392C114.266 764.902 115.354 763.899 116.073 763.432z"
       id="path1029" />
  </g>
  <g
     style="stroke:#000000;"
     id="g1030"
     transform="matrix(3.088532,0.000000,0.000000,3.088532,-229.2183,-1869.078)">
    <path
       d="M114.786 769.673C114.786 769.673 116.137 765.276 115.911 762.123"
       id="path1031" />
  </g>
  <g
     style="fill:#2c996c;"
     id="g1032"
     transform="matrix(3.088532,0.000000,0.000000,3.088532,-229.2183,-1869.078)">
    <path
       d="M256.606 803.583C256.475 804.633 255.387 805.272 253.947 805.11C253.122 802.611 240.064 763.173 237.263 759.314C238.673 752.372 243.243 736.648 254.592 746.012C268.919 757.833 275.465 780.456 278.474 793.525C281.484 806.593 277.719 820.932 269.926 817.91C262.133 814.889 256.606 803.583 256.606 803.583z"
       id="path1033" />
  </g>
  <g
     style="fill:#2c996c;stroke:#000000;stroke-width:4;"
     id="g1034"
     transform="matrix(3.088532,0.000000,0.000000,3.088532,-229.2183,-1869.078)">
    <path
       d="M240.005 755.241C240.005 755.241 241.198 778.506 251.656 791.58C254.402 795.013 257.836 794.555 258.064 792.724C258.064 792.724 263.089 803.002 270.174 805.749C277.258 808.495 280.681 795.46 277.945 783.58C275.209 771.699 269.258 751.132 256.233 740.386C243.209 729.639 240.005 755.241 240.005 755.241z"
       id="path1035" />
  </g>
  <g
     style="fill:#88d5b0;"
     id="g1036"
     transform="matrix(3.088532,0.000000,0.000000,3.088532,-229.2183,-1869.078)">
    <path
       d="M238.675 750.515C238.675 750.515 239.868 773.78 250.327 786.853C253.073 790.286 256.506 789.828 256.735 787.998C256.735 787.998 261.76 798.276 268.844 801.022C275.929 803.769 279.352 790.734 276.616 778.853C273.88 766.973 267.929 746.406 254.904 735.659C241.88 724.913 238.675 750.515 238.675 750.515z"
       id="path1037" />
  </g>
  <g
     style="fill:#c1efd7;"
     id="g1038"
     transform="matrix(3.088532,0.000000,0.000000,3.088532,-229.2183,-1869.078)">
    <path
       d="M249.758 738.734C252.144 737.534 256.283 739.224 259.001 742.509C261.719 745.794 261.988 749.43 259.601 750.63C257.215 751.83 253.077 750.14 250.358 746.855C247.64 743.57 247.371 739.934 249.758 738.734z"
       id="path1039" />
  </g>
  <g
     style="fill:#c1efd7;"
     id="g1040"
     transform="matrix(6.473292,0.000000,0.000000,6.473292,-606.6424,-3823.800)">
    <path
       d="M254.68 744.682z"
       id="path1041" />
  </g>
  <path
     style="fill:none;fill-opacity:0.75000000;fill-rule:evenodd;stroke:#000000;stroke-width:3.0885324pt;"
     d="M 376.76867,300.45983 C 398.77598,287.88425 416.85344,287.09825 434.14490,302.81777"
     id="path1046"
     sodipodi:nodetypes="cc" />
  <path
     style="fill:none;fill-opacity:0.75000000;fill-rule:evenodd;stroke:#000000;stroke-width:3.0885324pt;"
     d="M 379.12658,288.67022 C 391.44022,276.09461 406.89774,271.37877 422.35526,272.95070"
     id="path1047"
     sodipodi:nodetypes="cz" />
  <path
     style="fill:none;fill-opacity:0.75000000;fill-rule:evenodd;stroke:#000000;stroke-width:3.0885324pt;"
     d="M 247.08268,357.83605 L 286.38148,352.33424 L 242.36683,368.83972 L 242.36683,368.83972"
     id="path1048"
     sodipodi:nodetypes="cccc" />
</svg>
